# xmcd
#
# Track frame offsets: 
#        150
#        34015
#        66205
#        94692
#        147582
#        177690
#        210702
#        245560
#        272962
#        311845
#
# Disc length: 4741 seconds
#
# Revision: 1
# Processed by: cddbd v1.5.2PL0 Copyright (c) Steve Scherf et al.
# Submitted via: ExactAudioCopy v0.95b4
#
DISCID=9f12830a
DTITLE=Charles Earland - Leaving This Planet
DYEAR=1973
DGENRE=Jazz
TTITLE0=Leaving This Planet
TTITLE1=Red Clay
TTITLE2=Warp Factor 8
TTITLE3=Brown Eyes
TTITLE4=Asteroid
TTITLE5=Mason's Galaxy
TTITLE6=No Me Esqueca (Don't Forget Me)
TTITLE7=Tyner
TTITLE8=Van Jay
TTITLE9=Never Ending Melody
EXTD=YEAR: 1974
EXTT0=
EXTT1=
EXTT2=
EXTT3=
EXTT4=
EXTT5=
EXTT6=
EXTT7=
EXTT8=
EXTT9=
PLAYORDER=
